<?xml version="1.0" standalone="no"?>
<!DOCTYPE svg PUBLIC "-//W3C//DTD SVG 20010904//EN"
 "http://www.w3.org/TR/2001/REC-SVG-20010904/DTD/svg10.dtd">
<svg version="1.0" xmlns="http://www.w3.org/2000/svg"
 width="800.000000pt" height="800.000000pt" viewBox="0 0 800.000000 800.000000"
 preserveAspectRatio="xMidYMid meet">

<g transform="translate(0.000000,800.000000) scale(0.100000,-0.100000)"
fill="#000000" stroke="none">
<path d="M0 4000 l0 -4000 4000 0 4000 0 0 4000 0 4000 -4000 0 -4000 0 0
-4000z m4370 2371 c0 -17 -4 -32 -9 -36 -5 -3 -45 -10 -88 -15 -100 -13 -123
-30 -145 -106 -15 -53 -16 -149 -17 -936 l-1 -878 -22 0 c-40 0 -147 61 -368
209 l-55 37 -5 775 c-5 716 -7 777 -24 815 -26 59 -89 86 -213 93 -17 1 -34
36 -27 55 5 14 59 16 490 16 l484 0 0 -29z m-840 -744 c0 -118 -4 -126 -83
-153 -54 -18 -159 -123 -194 -195 -59 -119 -51 -347 15 -453 37 -60 99 -122
166 -168 33 -23 81 -58 106 -79 48 -40 241 -159 258 -159 5 0 32 -15 58 -33
27 -18 63 -40 79 -49 29 -15 159 -95 241 -149 21 -14 55 -31 74 -39 50 -20
200 -109 230 -137 14 -13 68 -54 120 -92 147 -107 154 -114 216 -224 31 -56
62 -111 69 -122 6 -11 20 -54 29 -95 29 -122 13 -377 -28 -455 -9 -16 -16 -36
-16 -42 0 -36 -100 -203 -159 -266 -80 -84 -215 -176 -301 -203 -134 -43 -211
-59 -219 -46 -12 20 17 205 33 217 8 6 54 35 101 65 134 84 175 162 182 352 7
174 -47 301 -182 426 -37 34 -72 62 -77 62 -10 0 -85 54 -103 75 -5 6 -28 22
-50 35 -22 13 -71 44 -110 69 -38 25 -101 61 -140 81 -92 48 -289 166 -340
205 -23 16 -85 52 -138 79 -103 52 -187 119 -336 266 -81 80 -88 90 -115 170
-16 47 -35 94 -42 105 -16 26 -44 196 -44 266 0 62 33 244 48 262 5 6 22 46
36 87 15 41 38 91 52 111 30 43 132 135 200 180 27 18 54 37 59 43 28 30 223
104 278 105 l27 1 0 -103z m760 49 c101 -31 141 -53 331 -179 95 -63 141 -124
163 -214 14 -56 16 -114 14 -338 l-3 -270 -40 0 -39 0 -24 105 c-31 140 -129
379 -177 430 -12 14 -30 39 -38 55 -9 17 -32 47 -51 68 -37 39 -153 121 -187
132 -17 6 -19 16 -19 109 0 95 4 116 19 116 3 0 26 -6 51 -14z m-530 -1909
c36 -24 90 -60 120 -80 30 -21 59 -37 64 -37 5 0 24 -11 41 -25 18 -13 51 -32
74 -41 28 -11 43 -24 47 -40 11 -42 -3 -854 -16 -949 -32 -242 -83 -382 -195
-533 -97 -131 -256 -230 -443 -276 -124 -31 -393 -10 -536 42 -56 20 -72 38
-63 73 l6 24 165 -4 c136 -2 170 0 197 13 18 9 36 16 41 16 5 0 34 11 64 25
30 14 58 25 63 25 19 0 121 115 132 148 6 20 23 57 37 81 14 23 32 68 39 100
14 54 18 73 44 211 8 44 13 258 16 668 5 551 6 602 21 602 10 0 46 -20 82 -43z
m-836 -256 c3 -5 10 -40 16 -77 23 -166 139 -421 242 -534 13 -14 35 -41 49
-60 20 -26 60 -52 157 -100 149 -74 150 -75 136 -179 -8 -57 -12 -66 -31 -69
-37 -5 -232 47 -274 74 -21 13 -41 24 -45 24 -11 0 -127 73 -159 100 -88 74
-136 140 -166 228 -17 49 -19 86 -19 322 0 147 3 270 7 273 10 10 81 8 87 -2z"/>
</g>
</svg>
